<svg  height="35" viewBox="0 0 150 35" width="150" xmlns="http://www.w3.org/2000/svg"><title>Payhawk logo</title><g fill="#ffffff" clip-path="url(#header-logo)"><path d="M12.4125 0H0V6.867C0 9.414 2.0655 11.4795 4.6125 11.4795V3.9H11.4375C14.5125 3.9 16.1625 5.475 16.1625 8.2125C16.1625 11.4 14.1 12.5625 11.4375 12.5625H4.6125C2.0655 12.5625 0 14.628 0 17.175V26.775H4.6125V16.464H12.4125C17.85 16.464 20.8125 13.089 20.8125 8.214C20.8125 3.339 17.8515 0 12.4125 0Z"></path><path d="M21.9225 21.2648C21.9225 17.7773 24.6975 16.0148 29.4975 15.6023C33.51 15.3023 35.0865 14.8523 35.0865 13.1648C35.0865 11.3648 33.474 10.3148 31.224 10.3148C28.749 10.3148 27.0615 11.2523 26.9115 13.6898H22.749C22.749 10.0148 26.1615 6.90234 31.224 6.90234C35.7615 6.90234 39.324 9.03984 39.324 13.8023V23.4023H40.899V26.7773H37.824C36.474 26.7773 35.349 25.7273 35.349 24.3773V23.8523H35.2365C33.624 26.0648 31.149 27.2648 28.4865 27.2648C24.5115 27.2648 21.9225 24.9773 21.9225 21.2648ZM29.4975 23.8523C32.31 23.8523 35.1225 21.9023 35.1225 18.3023V17.1023C33.9975 17.9273 32.235 18.2273 30.36 18.4148C27.6975 18.7148 26.2725 19.5773 26.2725 21.2648C26.2725 22.9523 27.6975 23.8523 29.4975 23.8523Z"></path><path d="M42.6255 30.6382H47.0505L48.5505 26.8132L40.938 7.38672H45.4005L50.5005 21.7867H50.613L55.713 7.38672H60.138L50.388 32.1007C49.9005 33.3382 48.6255 34.2007 47.2755 34.2007H42.6255V30.6382Z"></path><path d="M66.1035 10.3875H66.216C67.341 7.95 69.816 6.9 72.291 6.9C77.2785 6.9 78.966 9.825 78.966 13.95V26.775H74.7285V14.175C74.7285 11.9625 73.491 10.5 71.241 10.5C67.8285 10.5 66.1035 13.05 66.1035 16.3125V26.7765H61.866V0H66.1035V10.3875Z"></path><path d="M81.8925 21.2648C81.8925 17.7773 84.6675 16.0148 89.4675 15.6023C93.48 15.3023 95.0565 14.8523 95.0565 13.1648C95.0565 11.3648 93.444 10.3148 91.194 10.3148C88.719 10.3148 87.0315 11.2523 86.8815 13.6898H82.719C82.719 10.0148 86.1315 6.90234 91.194 6.90234C95.7315 6.90234 99.294 9.03984 99.294 13.8023V23.4023H100.869V26.7773H97.794C96.444 26.7773 95.319 25.7273 95.319 24.3773V23.8523H95.2065C93.594 26.0648 91.119 27.2648 88.4565 27.2648C84.4815 27.2648 81.8925 24.9773 81.8925 21.2648ZM89.4675 23.8523C92.28 23.8523 95.0925 21.9023 95.0925 18.3023V17.1023C93.9675 17.9273 92.205 18.2273 90.33 18.4148C87.6675 18.7148 86.2425 19.5773 86.2425 21.2648C86.2425 22.9523 87.6675 23.8523 89.4675 23.8523Z"></path><path d="M101.133 7.38672H105.671L109.721 22.3132H109.833L113.583 7.38672H117.633L121.383 22.3132H121.496L125.546 7.38672H130.121L123.971 26.7757H119.171L115.683 13.0492H115.571L112.046 26.7757H107.246L101.133 7.38672Z"></path><path d="M131.849 0H136.086V17.0265L144.674 7.3875H149.774L141.974 15.7125L149.999 26.775H145.049L139.386 18.525L136.086 22.05V26.775H131.849V0Z"></path></g><defs><clipPath id="header-logo"><rect height="34.203" width="150"></rect></clipPath></defs></svg>